<?xml version="1.0" encoding="utf-8"?>
<svg version="1.0" xmlns="http://www.w3.org/2000/svg" viewBox="150 200 2200 1300" preserveAspectRatio="xMidYMid meet">
 <g fill="#224257">
  <path d="M1199.18 1281.22 c82.65 -13.77 156.99 -49.02 235.78 -112.02 31.60 -25.32 60.97 -52.26 116.68 -107.16 50.44 -49.63 56.31 -54.69 73.94 -64.42 19.65 -10.94 32.41 -13.77 59.55 -12.76 22.08 0.61 24.31 1.01 38.69 7.90 21.07 10.33 29.57 16.81 68.26 53.07 49.63 46.18 78.39 66.85 114.45 81.43 33.42 13.57 70.49 20.26 87.71 15.39 16.61 -4.46 31.19 -22.48 31.40 -38.28 0 -11.55 -10.74 -27.75 -22.69 -34.03 -3.04 -1.62 -16 -4.25 -29.17 -5.87 -43.35 -5.67 -71.10 -20.86 -117.89 -64.21 -45.37 -42.13 -60.77 -55.10 -78.80 -66.44 -18.64 -11.75 -46.18 -23.09 -67.25 -27.55 -44.77 -9.52 -94.39 4.05 -143.82 39.30 -12.96 9.12 -39.09 33.02 -80.01 73.33 -59.76 58.54 -80.82 77.58 -114.04 102.90 -48.21 36.66 -101.08 62.59 -152.53 74.75 -18.03 4.25 -27.75 5.27 -65.23 6.08 -28.76 0.81 -49.83 0.20 -60.77 -1.22 -70.69 -10.13 -134.91 -40.51 -205.20 -96.83 -12.15 -9.72 -50.03 -45.17 -84.06 -78.59 -63.40 -62.39 -79.61 -76.37 -109.18 -93.99 -63 -38.08 -127.82 -38.08 -189.60 -0.20 -20.86 12.76 -28.76 19.24 -67.25 55.10 -39.70 37.27 -60.36 53.27 -80.62 63.20 -17.83 8.71 -26.33 10.94 -53.48 14.18 -25.52 3.24 -36.46 8.10 -43.75 19.24 -8.10 12.15 -9.72 19.85 -5.87 30.99 3.65 11.55 17.22 24.71 28.36 27.75 34.03 9.52 102.70 -13.17 151.72 -50.03 9.72 -7.29 29.17 -23.90 42.94 -36.66 70.29 -65.63 81.84 -72.11 128.63 -70.69 23.70 0.61 25.52 1.01 40.11 7.90 21.27 10.13 39.09 25.12 90.14 75.76 52.26 51.65 76.77 74.14 110.40 101.28 87.51 70.09 162.46 102.29 267.38 115.26 13.57 1.62 65.83 -0.81 85.08 -3.85z"/>
 </g>
 <g fill="#81878c">
  <path d="M1101.14 1277.98 c-49.22 -4.66 -101.89 -19.45 -146.86 -41.32 -65.63 -32.01 -116.88 -71.91 -209.86 -163.06 -31.19 -30.59 -62.59 -60.16 -69.88 -65.63 -46.99 -35.04 -85.68 -38.28 -130.86 -11.14 -13.37 8.10 -30.99 22.89 -65.43 55.10 -66.85 62.79 -115.66 86.29 -178.46 86.49 -33.83 0 -40.31 -5.06 -40.31 -32.41 -0.20 -27.55 5.47 -32.21 41.93 -35.65 25.12 -2.43 26.33 -2.63 48.01 -13.57 28.36 -14.18 47.60 -28.36 84.06 -63.20 41.12 -38.89 58.14 -52.06 84.06 -64.82 28.76 -14.18 40.51 -17.02 74.95 -18.64 42.54 -1.82 70.49 5.06 105.54 26.13 24.51 14.58 37.07 25.52 95.21 82.85 56.92 55.71 88.72 84.06 123.36 109.59 63.20 46.59 125.39 71.91 198.31 80.82 51.25 6.28 118.30 -7.29 176.43 -35.65 58.95 -28.76 104.73 -64.62 192.44 -150.91 31.19 -30.59 61.38 -59.55 66.85 -64.01 24.92 -20.26 48.41 -33.42 75.96 -42.54 16 -5.27 19.65 -5.67 51.65 -5.67 40.11 -0.20 53.48 2.63 83.66 17.83 25.52 12.96 42.54 25.73 74.34 55.91 47.40 44.97 72.92 63.61 104.73 76.37 13.37 5.47 37.88 10.53 51.25 10.74 4.46 0 10.94 1.82 14.58 4.05 9.52 5.67 12.76 13.57 12.76 31.19 0 13.17 -0.61 15.80 -5.06 21.07 -8.10 9.72 -14.38 11.14 -43.15 9.93 -29.98 -1.22 -52.26 -6.68 -78.80 -19.45 -33.83 -16.21 -57.12 -33.63 -102.29 -76.57 -32.41 -30.79 -48.62 -43.55 -65.83 -51.65 -33.02 -15.60 -58.34 -15.39 -90.34 0.61 -23.29 11.75 -38.69 24.71 -95.61 80.82 -94.80 93.18 -143.21 130.86 -210.67 164.28 -45.37 22.28 -85.08 34.64 -129.03 40.31 -24.71 3.04 -74.75 4.05 -97.64 1.82z"/>
  <path d="M1117.14 1049.08 c-66.64 -8.51 -129.24 -48.82 -232.34 -149.09 -60.57 -58.95 -98.45 -89.53 -133.49 -107.16 -13.98 -6.89 -14.18 -7.09 -13.57 -14.58 l0.61 -7.49 42.54 -21.27 c107.76 -54.08 194.66 -82.44 296.76 -96.42 31.40 -4.25 122.55 -5.06 151.92 -1.22 55.91 7.49 108.17 22.28 156.78 44.77 9.72 4.66 17.42 7.09 16.81 5.87 -4.25 -11.75 -25.32 -89.13 -30.18 -111.82 -7.90 -36.87 -10.13 -95.41 -4.86 -128.43 12.15 -77.58 52.46 -135.31 113.84 -163.67 43.35 -20.05 118.70 -28.36 160.84 -17.83 19.24 4.86 42.34 17.83 59.76 33.22 47.60 42.54 60.57 47.20 158 56.72 58.74 5.67 90.95 11.34 120.12 20.46 6.08 2.03 6.68 2.84 6.08 9.52 l-0.61 7.49 -28.16 9.52 c-33.22 11.14 -80.82 20.66 -124.78 24.92 -78.39 7.70 -80.22 8.10 -120.53 31.19 -24.71 14.18 -33.42 17.62 -85.89 33.63 -26.74 8.10 -40.11 20.26 -42.13 38.49 -1.42 11.95 18.64 77.99 23.70 77.99 3.24 0 35.45 44.36 52.26 71.71 13.57 22.08 24.71 45.98 24.71 52.87 l0 6.28 -24.71 2.43 c-69.88 6.68 -134.91 36.66 -202.16 93.18 -10.53 8.91 -34.64 30.99 -53.68 49.02 -70.90 67.86 -95 88.52 -125.99 108.57 -21.07 13.77 -48.62 27.75 -65.02 33.22 -26.94 8.91 -64.42 11.95 -96.62 7.90z m320.05 -388.92 c-1.62 -7.09 -3.65 -23.50 -4.25 -36.46 l-1.42 -23.70 -5.67 2.03 c-3.24 1.01 -5.87 3.04 -5.87 4.46 0 2.63 11.95 46.59 16.41 60.36 3.85 11.75 4.25 7.70 0.81 -6.68z m36.46 -2.63 c-3.65 -17.42 -5.06 -30.18 -5.06 -45.37 0 -16.41 -0.20 -16.81 -4.46 -16.21 -4.46 0.61 -4.66 1.42 -4.46 20.05 0.20 10.74 1.82 26.33 3.65 34.84 3.04 13.57 3.85 14.99 7.49 14.18 3.65 -1.01 4.05 -2.23 2.84 -7.49z m33.83 -10.33 c-0.20 -2.23 -1.01 -13.77 -1.82 -25.73 -1.22 -21.27 -1.42 -21.88 -5.87 -21.88 -4.66 0 -4.86 0.61 -4.86 14.79 0 12.76 2.23 27.14 5.06 35.45 1.62 4.25 8.10 1.82 7.49 -2.63z m35.04 -17.02 c-0.41 -4.05 -1.42 -11.55 -2.03 -16.81 -1.22 -8.51 -1.82 -9.72 -6.08 -9.72 -4.66 0 -4.86 0.41 -3.85 10.74 2.23 19.24 4.46 25.52 8.91 24.31 3.24 -0.81 3.85 -2.43 3.04 -8.51z m32.82 -13.37 c-1.62 -8.91 -2.84 -11.14 -5.87 -11.14 -3.24 0 -3.65 1.01 -2.63 7.70 2.23 12.56 3.24 14.58 6.89 14.58 3.24 0 3.44 -1.01 1.62 -11.14z m53.07 -235.18 c3.65 -3.04 6.28 -7.09 6.28 -9.93 0 -4.46 -10.13 -15.19 -14.18 -15.19 -4.05 0 -14.18 10.74 -14.18 15.19 0 4.46 10.13 15.19 14.18 15.19 1.01 0 4.46 -2.43 7.90 -5.27z"/>
  <path d="M276.09 853 c-11.34 -5.27 -14.79 -12.36 -14.79 -30.99 0 -12.36 0.81 -16 4.86 -22.08 5.27 -7.70 49.63 -47.20 75.76 -67.25 52.87 -40.92 115.66 -72.72 169.14 -85.48 98.24 -23.50 193.45 -9.52 286.43 42.34 18.23 9.93 18.84 10.53 18.64 17.42 l0 7.09 -29.78 14.79 c-16.41 7.90 -32.21 14.58 -35.04 14.58 -2.84 0 -12.96 -3.44 -22.28 -7.90 -20.66 -9.52 -49.02 -19.04 -74.75 -24.92 -27.55 -6.28 -75.35 -6.28 -105.33 0.20 -73.73 15.80 -143.42 56.11 -212.69 123.16 -9.52 9.12 -20.66 18.03 -24.71 19.85 -10.13 4.05 -25.12 3.85 -35.45 -0.81z"/>
  <path d="M1976.01 856.04 c-1.01 -0.41 -4.66 -1.42 -7.70 -2.03 -3.44 -0.81 -14.18 -9.32 -26.33 -21.07 -27.75 -26.54 -40.92 -37.47 -67.86 -56.72 -57.93 -41.73 -113.44 -63.81 -176.23 -70.29 l-12.56 -1.42 -8.51 -14.38 c-4.46 -8.10 -11.95 -19.65 -16.21 -25.93 -6.48 -9.32 -7.90 -12.96 -7.29 -19.24 l0.61 -7.90 20.26 -0.61 c76.37 -2.43 154.15 21.47 227.88 70.29 41.93 27.75 104.32 81.63 111.41 96.22 8.31 17.22 4.25 40.31 -8.51 48.62 -4.46 3.04 -24.71 6.08 -28.97 4.46z"/>
 </g>
 <g fill="#0f2c40">
  <path d="M1108.03 1291.14 c-104.73 -12.96 -179.88 -45.17 -267.38 -115.26 -33.63 -27.14 -58.14 -49.63 -110.40 -101.28 -51.05 -50.64 -68.87 -65.63 -90.14 -75.76 -13.37 -6.48 -17.42 -7.29 -34.03 -7.90 -14.58 -0.61 -21.67 0.20 -32.41 3.44 -22.48 6.68 -37.07 17.62 -90.14 67.25 -32.41 30.18 -55.50 47.40 -82.24 61.38 -35.85 18.64 -68.67 27.55 -100.07 27.55 -21.67 0 -30.38 -2.63 -40.92 -12.56 -16.41 -14.99 -19.45 -38.89 -7.49 -58.14 8.10 -13.57 18.23 -18.23 44.97 -21.47 27.35 -3.44 35.85 -5.67 53.68 -14.38 20.26 -9.93 40.92 -25.93 80.62 -63.20 38.49 -35.85 46.39 -42.34 67.25 -55.10 32.61 -20.05 61.98 -28.36 99.66 -28.36 38.89 0 68.26 8.10 102.09 28.56 29.57 17.62 45.78 31.60 109.18 93.99 34.03 33.42 71.91 68.87 84.06 78.59 70.29 56.31 134.50 86.70 205.20 96.83 27.55 3.85 87.51 1.22 113.84 -4.86 51.25 -12.15 104.32 -38.08 152.53 -74.75 33.22 -25.32 54.29 -44.36 114.04 -102.90 64.82 -63.61 84.27 -79.61 117.28 -96.02 26.74 -13.37 52.46 -19.45 81.84 -19.45 27.14 0 42.74 2.84 68.47 12.56 33.42 12.56 51.86 26.13 114.45 84.27 46.79 43.35 74.54 58.54 117.89 64.21 13.17 1.62 26.13 4.25 29.17 5.87 19.85 10.33 28.76 37.27 19.65 59.55 -4.25 10.53 -17.22 22.08 -28.16 24.92 -11.55 3.24 -47.60 1.01 -66.64 -4.05 -51.05 -13.37 -87.10 -36.06 -147.87 -92.77 -38.69 -36.26 -47.20 -42.74 -68.06 -52.87 -33.02 -16 -72.32 -9.32 -106.35 17.83 -4.46 3.44 -28.56 26.54 -53.88 51.25 -55.71 54.89 -85.08 81.84 -116.68 107.16 -78.80 63 -152.53 98.04 -235.78 112.02 -18.43 3.04 -82.65 5.67 -97.23 3.85z m85.68 -21.27 c42.74 -5.27 83.05 -18.03 128.02 -40.11 67.45 -33.42 115.87 -71.10 210.67 -164.28 31.19 -30.79 62.59 -60.16 69.88 -65.23 28.16 -19.85 50.84 -27.95 77.99 -27.95 18.64 0 32.21 3.24 50.24 11.75 17.22 8.10 33.42 20.86 65.83 51.65 15.39 14.38 34.23 31.40 41.93 37.88 43.15 35.25 89.53 55.50 133.08 58.14 22.28 1.42 29.17 -0.41 37.07 -9.93 3.85 -4.46 5.06 -8.31 5.06 -14.99 0 -17.22 -11.14 -29.17 -27.35 -29.17 -13.37 -0.20 -37.88 -5.27 -51.25 -10.74 -31.80 -12.76 -57.33 -31.40 -104.73 -76.37 -31.80 -30.18 -48.82 -42.94 -74.34 -55.91 -28.76 -14.58 -44.16 -18.03 -77.58 -17.83 -25.32 0.20 -30.18 0.81 -45.58 5.87 -27.55 8.91 -51.05 22.08 -75.96 42.34 -5.47 4.46 -35.65 33.42 -66.85 64.01 -87.71 86.29 -133.49 122.15 -192.44 150.91 -126.81 61.78 -263.13 45.98 -386.90 -45.17 -34.64 -25.52 -66.44 -53.88 -123.36 -109.59 -31.19 -30.79 -62.39 -60.16 -69.07 -65.23 -42.74 -32.41 -81.84 -46.18 -125.18 -43.75 -28.56 1.82 -42.34 5.47 -69.28 18.64 -25.93 12.76 -42.94 25.93 -84.06 64.82 -36.46 34.84 -55.71 49.02 -84.06 63.20 -21.67 10.94 -22.89 11.14 -48.01 13.57 -34.23 3.24 -42.13 8.71 -41.93 29.57 0 10.94 3.04 17.02 11.14 22.48 12.56 8.31 56.11 3.44 91.36 -10.13 32.01 -12.56 63 -33.83 104.12 -72.52 54.69 -50.84 71.91 -63 100.47 -70.49 26.74 -7.09 54.49 -3.65 81.43 10.13 22.28 11.14 37.27 23.90 96.42 82.04 92.98 91.15 144.23 131.06 209.86 163.06 44.97 21.88 97.64 36.66 146.86 41.32 21.67 2.03 61.17 1.22 86.49 -2.03z"/>
  <path d="M1106 1150.36 c-52.06 -6.48 -107.36 -28.36 -157.80 -62.19 -33.42 -22.48 -50.44 -36.26 -95 -78.19 -79.81 -74.75 -89.13 -83.05 -109.38 -98.45 -32.61 -24.51 -70.69 -42.74 -104.32 -49.83 -18.23 -3.85 -55.50 -3.65 -76.37 0.41 -34.64 6.48 -70.29 23.29 -102.29 48.41 -8.91 6.89 -34.44 29.78 -56.72 50.64 -66.64 62.39 -70.49 65.02 -95 63.40 -10.74 -0.61 -14.99 -2.03 -21.88 -6.89 -23.90 -16.61 -26.13 -53.07 -4.86 -74.54 8.71 -8.71 72.52 -66.44 98.45 -88.93 59.55 -51.65 114.04 -77.99 180.89 -87.51 40.92 -5.87 84.06 -2.23 127.41 10.33 35.45 10.53 35.04 10.33 32.21 5.27 -5.06 -9.52 -1.01 -19.85 10.53 -26.94 l6.28 -3.65 -17.83 -8.31 c-37.68 -17.42 -74.75 -25.12 -119.72 -25.12 -49.22 0.20 -86.70 9.12 -132.68 32.01 -41.53 20.46 -79.81 48.41 -123.77 89.94 -26.33 24.71 -31.19 27.55 -48.41 27.55 -37.88 0.20 -60.36 -36.87 -41.53 -68.67 10.33 -17.83 72.11 -71.51 115.87 -100.88 28.16 -18.84 81.63 -45.58 110.40 -54.89 12.15 -4.05 33.42 -9.72 47.60 -12.76 24.11 -5.06 29.37 -5.47 73.53 -5.47 43.96 0 49.63 0.41 73.13 5.47 54.29 11.55 136.12 46.79 157.19 67.66 l8.51 8.31 18.84 -8.10 c26.74 -11.55 90.34 -32.61 127.21 -41.93 60.77 -15.39 108.17 -21.27 170.15 -21.27 79.81 0 140.58 11.34 207.63 38.28 20.26 8.31 20.05 8.10 18.23 3.65 -10.94 -26.94 -27.95 -101.28 -31.60 -138.35 -6.48 -65.63 12.56 -139.77 48.21 -187.37 35.25 -46.99 78.19 -72.32 145.44 -85.48 26.74 -5.06 71.51 -4.66 94.39 1.01 31.19 7.70 44.36 14.99 75.76 41.93 41.32 35.65 51.25 39.09 139.77 47.60 76.57 7.29 128.02 18.03 140.38 28.97 5.47 5.06 6.08 18.43 1.22 25.32 -8.91 12.96 -62.19 30.18 -122.75 39.91 -18.64 2.84 -59.96 7.49 -91.76 10.13 -22.89 2.03 -36.46 6.89 -64.62 22.89 -28.56 16.41 -41.53 22.08 -75.76 31.80 -28.97 8.10 -35.45 11.34 -40.31 18.64 -5.27 8.10 -4.05 21.07 4.25 46.18 7.09 20.86 14.58 36.46 23.29 47.60 l3.85 4.86 4.05 -4.86 c4.05 -5.06 4.25 -5.06 38.28 -4.86 54.29 0 98.04 8.91 150.71 29.98 53.88 21.67 118.50 65.63 174.61 118.70 21.67 20.66 27.55 29.57 29.17 45.37 3.04 28.76 -16 49.83 -44.97 49.83 -17.42 0 -25.12 -4.46 -51.65 -29.17 -29.78 -27.95 -50.64 -44.77 -76.57 -61.98 -49.22 -32.82 -101.48 -52.67 -147.06 -56.11 -17.22 -1.22 -18.03 -1.01 -16.81 2.63 0.61 2.03 3.65 10.33 6.28 18.03 2.84 7.90 5.27 16.21 5.27 18.64 0 3.65 1.42 4.66 7.70 5.67 65.02 10.53 113.03 30.79 163.47 68.67 25.32 18.84 49.22 39.70 86.49 74.75 46.99 44.36 51.45 50.84 49.83 75.35 -1.42 23.50 -17.62 39.70 -41.12 41.12 -23.90 1.62 -28.56 -1.62 -85.68 -56.52 -68.87 -66.44 -99.46 -87.31 -149.29 -102.09 -24.51 -7.29 -62.59 -9.12 -89.13 -4.05 -18.84 3.44 -48.01 13.98 -63.81 22.89 -37.07 21.07 -66.44 45.37 -132.68 109.59 -65.83 63.81 -101.08 91.56 -149.09 117.28 -34.64 18.64 -75.35 32.61 -111.21 37.88 -20.66 3.24 -61.38 3.65 -83.05 0.81z m85.08 -26.13 c21.07 -4.25 61.98 -17.62 76.97 -25.12 34.84 -17.62 69.28 -40.51 100.27 -67.05 10.13 -8.51 41.12 -37.27 68.87 -63.81 62.59 -59.55 71.91 -67.66 97.23 -84.87 54.08 -36.87 90.95 -48.82 150.10 -48.82 42.94 0 70.90 6.48 106.55 24.31 33.83 17.22 63.81 41.32 127.62 102.70 21.88 21.27 39.91 37.07 43.15 37.88 7.09 1.82 17.62 -4.66 21.88 -13.37 3.04 -6.28 2.84 -7.09 -1.22 -14.38 -4.46 -7.90 -77.38 -78.19 -105.74 -101.69 -22.69 -19.04 -54.89 -40.11 -76.97 -50.64 -95.81 -45.98 -183.93 -38.08 -277.51 24.71 -33.02 22.28 -54.49 40.72 -109.38 93.79 -52.26 50.64 -76.97 71.71 -109.99 93.99 -58.34 39.50 -103.71 53.27 -167.52 51.25 -44.77 -1.42 -70.49 -7.90 -108.78 -26.94 -49.83 -24.92 -83.46 -51.25 -164.68 -129.64 -22.28 -21.47 -47.81 -45.17 -56.72 -52.67 -65.83 -54.69 -126.81 -80.82 -194.46 -83.25 -47.60 -1.62 -78.39 4.86 -125.79 26.94 -36.87 17.02 -70.69 42.54 -132.48 99.86 -13.98 12.96 -30.38 27.95 -36.46 33.42 -13.98 12.15 -22.28 22.89 -22.28 28.76 0 6.08 10.74 18.23 17.22 19.85 2.84 0.81 6.89 0.41 9.32 -0.81 6.28 -3.44 27.95 -22.69 69.88 -61.78 54.69 -51.25 80.01 -69.68 117.28 -85.08 28.56 -11.95 58.14 -17.02 98.24 -17.22 39.09 0 61.38 4.25 93.18 18.03 46.39 20.05 73.33 40.92 169.55 132.68 44.36 42.54 66.24 60.57 99.05 82.44 73.33 49.02 156.99 70.09 223.63 56.52z m-15.80 -82.04 c24.11 -3.65 39.91 -8.71 63 -20.46 46.39 -23.50 72.92 -44.77 160.43 -128.43 19.04 -18.03 43.15 -40.11 53.68 -49.02 67.05 -56.52 131.87 -86.29 202.56 -93.38 l24.51 -2.43 -8.10 -16.21 c-10.53 -21.47 -21.27 -38.89 -45.78 -73.53 -11.14 -16 -21.47 -28.76 -23.29 -28.76 -2.23 0 -6.08 -9.32 -13.98 -34.44 -14.79 -47.20 -14.38 -62.59 1.82 -78.39 8.71 -8.51 19.04 -13.17 43.75 -19.85 32.21 -8.91 46.79 -14.79 73.33 -29.98 39.91 -22.69 41.53 -23.09 120.93 -30.99 53.68 -5.27 107.16 -17.22 147.87 -33.22 7.90 -3.04 5.67 -4.25 -20.46 -10.94 -27.14 -6.89 -50.44 -10.53 -101.08 -15.39 -97.43 -9.52 -109.99 -14.18 -157.80 -56.52 -35.04 -30.99 -71.30 -41.73 -124.58 -36.66 -97.64 9.12 -160.63 57.53 -188.38 144.43 -10.13 31.40 -12.96 55.50 -11.75 94.60 1.22 38.89 6.68 68.06 23.70 127.01 12.76 43.96 18.43 66.04 17.22 67.25 -0.61 0.41 -12.15 -4.46 -25.73 -10.94 -54.49 -25.52 -104.93 -40.31 -163.67 -48.01 -28.76 -3.65 -108.78 -3.04 -139.77 1.22 -79 10.94 -150.91 31.19 -230.92 65.23 -29.37 12.56 -106.55 50.44 -108.17 53.27 -0.81 1.22 4.46 5.06 12.76 9.12 35.04 17.62 72.92 48.21 133.49 107.16 103.11 100.27 165.70 140.58 232.34 149.09 21.27 2.63 30.38 2.43 52.06 -0.81z m-869.81 -194.46 c4.05 -1.82 15.19 -10.74 24.71 -19.85 69.28 -67.05 138.76 -107.36 212.69 -123.16 31.19 -6.68 87.31 -6.89 116.88 -0.20 25.93 5.87 53.68 14.99 74.95 24.71 l16.61 7.70 29.37 -14.38 c16.21 -8.10 29.37 -14.99 29.37 -15.60 0.20 -1.42 -34.84 -20.66 -51.45 -28.36 -49.22 -22.48 -108.98 -36.46 -155.97 -36.46 -36.66 0 -89.13 9.72 -125.99 23.50 -39.09 14.38 -90.95 43.96 -128.63 73.13 -26.13 20.05 -70.49 59.55 -75.76 67.25 -9.72 14.58 -5.06 34.03 9.93 40.92 10.33 4.66 13.57 4.66 23.29 0.81z m1696.27 -4.46 c5.67 -5.06 9.72 -13.57 9.72 -20.05 0 -11.55 -7.90 -22.28 -33.02 -45.17 -91.96 -83.25 -171.37 -123.36 -265.16 -133.69 -25.32 -2.84 -51.65 -2.84 -53.27 0 -0.81 1.22 2.23 7.29 6.48 13.57 4.46 6.28 11.95 18.03 16.41 26.13 l8.51 14.38 12.56 1.42 c62.79 6.48 118.30 28.56 176.23 70.29 26.94 19.24 40.11 30.18 67.86 56.72 12.15 11.75 22.89 20.26 26.33 21.07 3.04 0.61 6.68 1.42 7.70 1.62 4.05 1.01 15.60 -2.63 19.65 -6.28z"/>
  <path d="M1426.46 659.95 c-6.68 -22.28 -11.34 -40.51 -13.57 -52.87 -1.22 -7.29 -1.01 -7.70 6.28 -10.74 4.25 -1.82 10.53 -3.65 13.77 -4.25 l6.28 -1.01 0.20 24.11 c0.20 17.02 1.62 29.37 4.66 42.54 2.63 10.33 4.05 19.65 3.24 20.86 -0.61 1.01 -4.25 2.03 -7.90 2.03 l-6.68 0 -6.28 -20.66z"/>
  <path d="M1460.69 670.08 c-4.46 -11.75 -6.89 -30.99 -7.09 -54.29 l-0.20 -25.32 10.74 0 10.94 0 0.61 24.31 c0.41 16 2.03 29.17 4.66 38.89 l4.05 14.58 -9.32 3.04 c-11.95 4.05 -12.36 4.05 -14.38 -1.22z"/>
  <path d="M1495.94 662.59 c-3.44 -5.87 -7.09 -30.59 -7.09 -49.63 0 -21.88 0 -21.88 4.66 -20.66 2.43 0.61 7.49 1.22 11.14 1.22 l6.48 0 0 14.79 c0.20 7.90 1.42 21.88 3.04 30.79 1.62 8.71 2.63 16.21 2.43 16.41 -3.44 2.63 -19.85 8.31 -20.66 7.09z"/>
  <path d="M1527.54 638.68 c-1.42 -6.48 -2.63 -18.64 -2.84 -26.74 l-0.41 -15.19 10.13 0.61 c5.67 0.20 10.33 0.81 10.74 1.01 0.20 0.41 1.42 7.90 2.43 16.81 1.01 8.91 2.43 18.43 3.04 21.47 1.22 4.66 0.61 5.67 -5.47 8.10 -15.60 6.48 -14.99 6.68 -17.62 -6.08z"/>
  <path d="M1563.59 632.41 c-1.01 -2.63 -2.43 -11.75 -3.24 -20.26 -1.22 -13.98 -1.01 -15.19 2.23 -13.98 2.03 0.81 6.48 1.42 10.13 1.42 6.28 0 6.68 0.41 8.91 11.75 1.42 6.28 2.84 13.77 3.65 16.61 1.01 4.86 0.41 5.27 -9.32 7.29 -10.13 2.23 -10.53 2.03 -12.36 -2.84z"/>
  <path d="M1605.93 387.10 c-5.67 -5.06 -6.68 -7.29 -6.68 -15.39 0 -8.10 1.01 -10.33 6.68 -15.39 8.91 -8.10 20.05 -8.10 28.97 -0.20 5.47 4.86 6.48 7.29 6.68 15.39 0.20 8.51 -0.61 10.33 -6.48 15.60 -9.12 8.10 -20.05 8.10 -29.17 0z"/>
 </g>
 <g fill="#fbfbfb">
  <path d="M1111.27 1132.13 c-48.82 -5.67 -101.69 -26.13 -149.90 -58.34 -32.82 -21.88 -54.69 -39.91 -99.05 -82.44 -56.92 -54.08 -74.54 -70.09 -98.04 -88.72 -68.06 -54.29 -134.10 -72.32 -209.25 -57.12 -54.89 11.14 -89.13 32.01 -158.81 97.43 -42.54 39.70 -63.61 58.34 -70.29 61.98 -2.63 1.22 -8.71 1.82 -14.58 1.22 -8.51 -0.81 -11.34 -2.03 -17.02 -8.31 -5.87 -6.28 -6.68 -8.71 -6.68 -18.03 0 -12.56 4.46 -19.45 22.28 -35.04 6.08 -5.47 22.48 -20.46 36.46 -33.42 61.78 -57.33 95.61 -82.85 132.48 -99.86 48.82 -22.69 78.39 -28.76 132.88 -26.94 47.60 1.42 79.81 9.72 123.56 31.80 38.89 19.65 72.11 45.78 132.68 104.12 81.23 78.39 114.85 104.73 164.68 129.64 36.46 18.03 63.40 25.12 102.70 26.94 56.31 2.43 104.93 -12.96 161.44 -51.25 33.02 -22.28 57.73 -43.35 109.99 -93.99 54.89 -53.07 76.37 -71.51 109.38 -93.79 39.91 -26.74 81.43 -44.56 119.31 -51.05 23.29 -4.05 68.47 -3.85 91.56 0 51.45 9.12 107.36 36.66 155.77 76.97 28.56 23.70 100.47 92.98 105.54 101.48 5.67 9.72 6.08 16.81 1.62 26.33 -5.87 12.36 -22.08 18.43 -36.06 12.96 -2.84 -1.01 -21.67 -18.03 -42.13 -37.68 -62.79 -60.57 -92.98 -85.08 -126.81 -102.09 -33.83 -17.02 -64.01 -24.31 -100.47 -24.31 -52.67 0 -91.96 13.37 -144.02 48.82 -25.32 17.22 -34.64 25.32 -97.23 84.87 -27.75 26.54 -58.74 55.30 -68.87 63.81 -30.99 26.54 -65.43 49.43 -100.27 67.05 -14.99 7.49 -55.91 20.86 -76.97 25.12 -21.07 4.25 -58.14 5.06 -85.89 1.82z"/>
 </g>
</svg>
